<?xml version="1.0" encoding="UTF-8" standalone="no"?><!DOCTYPE svg PUBLIC "-//W3C//DTD SVG 1.1//EN" "http://www.w3.org/Graphics/SVG/1.1/DTD/svg11.dtd"><svg width="100%" height="100%" viewBox="0 0 640 640" version="1.1" xmlns="http://www.w3.org/2000/svg" xmlns:xlink="http://www.w3.org/1999/xlink" xml:space="preserve" xmlns:serif="http://www.serif.com/" style="fill-rule:evenodd;clip-rule:evenodd;stroke-linejoin:round;stroke-miterlimit:2;"><path d="M210.5,480l123,0l65.3,-65.3l-173.5,-173.5l-126.7,126.7l112,112l-0.1,0.1Zm333.5,64l-333.5,0c-17,0 -33.3,-6.7 -45.3,-18.7l-116.2,-116.3c-10.9,-10.9 -17,-25.6 -17,-41c0,-15.4 6.1,-30.1 17,-41l246,-246c10.9,-10.9 25.6,-17 41,-17c15.4,0 30.1,6.1 41,17l182,182c10.9,10.9 17,25.6 17,41c0,15.4 -6.1,30.1 -17,41l-135,135l120,0c17.7,0 32,14.3 32,32c0,17.7 -14.3,32 -32,32Z" style="fill-rule:nonzero; fill:currentColor"/><circle cx="112.248" cy="144.248" r="80.248" style="fill:currentColor;"/></svg>