<svg xmlns="http://www.w3.org/2000/svg" xmlns:svg="http://www.w3.org/2000/svg" xmlns:xlink="http://www.w3.org/1999/xlink" width="160" height="160" x="0" y="0" version="1.1" viewBox="0 0 150 150"><defs id="defs18"><linearGradient id="linearGradient857"><stop style="stop-color:#0082c9;stop-opacity:1" id="stop853" offset="0"/><stop style="stop-color:#1cafff;stop-opacity:1" id="stop855" offset="1"/></linearGradient><clipPath id="clipPath8812" clipPathUnits="userSpaceOnUse"><circle id="circle8814" cx="95.669" cy="95.669" r="79.724" style="fill:#00080d;fill-opacity:1;stroke-width:1"/></clipPath><linearGradient id="linearGradient1192" x1="18.23" x2="150" y1="150" y2="0" gradientTransform="translate(1e-5,7.88471e-6)" gradientUnits="userSpaceOnUse" xlink:href="#linearGradient857"/></defs><rect id="rect1050" width="150" height="150" x="0" y="0" style="opacity:1;fill:url(#linearGradient1192);fill-opacity:1;fill-rule:evenodd;stroke:none;stroke-width:.1;stroke-miterlimit:4;stroke-dasharray:none;stroke-opacity:1"/><g transform="translate(0 12.5)"><path id="path1052" d="m 75.086802,37.28751 c -11.805271,0 -21.811217,8.003196 -24.912392,18.846621 -2.695245,-5.751517 -8.535934,-9.780938 -15.263394,-9.780938 -9.25185,0 -16.85711,7.605263 -16.85711,16.857108 0,9.251833 7.60526,16.860567 16.85711,16.860567 6.72746,0 12.568149,-4.031885 15.263395,-9.784412 3.101175,10.84425 13.10712,18.850106 24.912391,18.850106 11.717964,0 21.67289,-7.885111 24.853382,-18.607048 2.745036,5.621934 8.513436,9.541354 15.145346,9.541354 9.25185,0 16.86057,-7.608734 16.86057,-16.860567 0,-9.251845 -7.60872,-16.857108 -16.86057,-16.857108 -6.63191,0 -12.40031,3.916965 -15.145346,9.537891 C 96.759692,45.169985 86.804766,37.28751 75.086802,37.28751 Z m 0,9.895518 c 8.911648,0 16.030748,7.115653 16.030748,16.027273 0,8.911605 -7.1191,16.030737 -16.030748,16.030737 -8.911593,0 -16.027247,-7.119132 -16.027247,-16.030737 0,-8.91162 7.115653,-16.027271 16.027247,-16.027273 z m -40.175786,9.065684 c 3.90438,0 6.96505,3.057188 6.96505,6.961589 0,3.904386 -3.06067,6.965049 -6.96505,6.965049 -3.90439,0 -6.96161,-3.060663 -6.96161,-6.965049 0,-3.904401 3.05722,-6.961589 6.96161,-6.961589 z m 80.174514,0 c 3.90442,0 6.96506,3.057188 6.96506,6.961589 0,3.904386 -3.06066,6.965049 -6.96506,6.965049 -3.90436,0 -6.96158,-3.060663 -6.96158,-6.965049 0,-3.904401 3.05723,-6.961589 6.96158,-6.961589 z" style="color:#000;font-style:normal;font-variant:normal;font-weight:400;font-stretch:normal;font-size:medium;line-height:normal;font-family:sans-serif;text-indent:0;text-align:start;text-decoration:none;text-decoration-line:none;text-decoration-style:solid;text-decoration-color:#000;letter-spacing:normal;word-spacing:normal;text-transform:none;writing-mode:lr-tb;direction:ltr;baseline-shift:baseline;text-anchor:start;white-space:normal;clip-rule:nonzero;display:inline;overflow:visible;visibility:visible;opacity:1;isolation:auto;mix-blend-mode:normal;color-interpolation:sRGB;color-interpolation-filters:linearRGB;solid-color:#000;solid-opacity:1;fill:#fff;fill-opacity:1;fill-rule:nonzero;stroke:none;stroke-width:5.56590033;stroke-linecap:butt;stroke-linejoin:miter;stroke-miterlimit:10;stroke-dasharray:none;stroke-dashoffset:0;stroke-opacity:1;color-rendering:auto;image-rendering:auto;shape-rendering:auto;text-rendering:auto;enable-background:accumulate"/></g></svg>