<svg xmlns="http://www.w3.org/2000/svg" viewBox="224 126 588 454" width="508" height="374"><path id="path_705d500a-24ba-461e-082e-a0af3c4d37fb" d="M-8.62,5.63 Q10.04,-4.19 29.54,-9.39 T70.28,-5.78 91.62,21.66 81.09,59.72 59.32,100.56 42.16,140.14 34.26,179.91 36.00,223.09 49.31,261.24 78.82,259.91 113.63,220.89 148.01,175.23 195.34,125.95 239.72,91.90 290.03,73.61 351.86,68.75 400.51,92.29 427.53,144.99 431.50,198.89 424.35,239.40 412.66,277.15 388.35,321.65 353.81,362.88 311.82,381.47 271.95,367.69 258.53,329.02 274.85,276.05 305.41,225.83 341.29,190.60 383.56,159.15 453.04,122.99 503.16,100.40 509.04,99.77 514.80,101.06 519.86,104.12 523.67,108.63 525.84,114.12 526.14,120.02 524.55,125.71 521.22,130.59 516.51,134.15 510.90,136.02 505.00,136.01 499.40,134.11 494.71,130.52 491.41,125.62 489.85,119.92 490.18,114.03 492.38,108.54 496.22,104.05 501.29,101.02 507.06,99.77 512.93,100.42 518.29,102.92 522.57,106.99 525.32,112.22 526.26,118.05 525.28,123.88 522.50,129.09 518.20,133.14 515.72,134.81 470.73,155.39 405.47,188.87 367.07,217.00 335.07,247.69 308.99,288.10 312.25,325.91 342.36,322.60 370.31,278.44 390.26,215.21 393.82,156.27 372.15,118.20 328.08,104.44 274.24,117.76 220.84,152.46 177.39,197.66 143.26,243.02 110.74,282.88 74.79,306.65 38.90,302.68 12.86,272.72 -0.53,226.51 -2.05,174.32 7.65,127.20 26.75,83.07 51.59,42.57 45.84,26.79 17.91,33.48 6.53,39.16 2.23,40.23 -2.19,40.23 -6.49,39.18 -10.42,37.13 -13.73,34.19 -16.25,30.55 -17.83,26.41 -18.37,22.02 -17.84,17.62 -16.27,13.48 -13.76,9.84 -10.45,6.90 Z" fill="currentColor" stroke="transparent" stroke-width="0" stroke-linejoin="round" stroke-linecap="round" pointer-events="all" transform="translate(264, 166)"/></svg>