<svg xmlns="http://www.w3.org/2000/svg" viewBox="224 126 588 454" width="508" height="374"><path id="path_705d500a-24ba-461e-082e-a0af3c4d37fb" d="M-9.17,4.58 Q9.75,-4.74 29.34,-10.04 T71.09,-6.78 93.86,21.46 83.16,60.56 59.57,100.76 41.05,139.74 32.30,179.68 33.02,223.42 46.98,262.36 78.54,260.92 115.31,222.09 151.85,178.25 201.13,132.30 262.12,95.78 325.12,80.16 376.98,86.90 411.05,119.37 420.92,180.77 412.42,237.17 392.25,287.15 361.69,337.88 324.10,369.47 281.39,364.98 263.40,328.83 281.98,278.90 313.74,232.08 349.83,199.42 391.62,170.14 460.01,135.82 507.10,114.71 508.19,114.59 509.27,114.83 510.22,115.41 510.93,116.25 511.33,117.28 511.39,118.38 511.09,119.44 510.47,120.35 509.59,121.02 508.54,121.37 507.44,121.37 506.39,121.01 505.52,120.34 504.90,119.42 504.61,118.36 504.67,117.26 505.08,116.23 505.80,115.39 506.75,114.83 507.83,114.59 508.92,114.72 509.92,115.18 510.72,115.94 511.24,116.92 511.41,118.01 511.23,119.10 510.71,120.07 509.91,120.83 509.44,121.14 463.76,142.56 397.41,177.88 358.53,208.18 326.75,241.43 301.86,285.25 295.23,334.97 317.57,352.14 351.92,329.80 382.42,283.30 399.95,234.99 404.86,197.98 401.74,153.76 384.91,113.33 349.96,93.95 297.94,96.86 240.75,124.56 192.66,170.02 156.88,218.91 126.46,263.57 95.02,296.11 57.74,305.89 25.88,289.11 8.06,250.46 -0.23,200.61 3.24,149.64 17.11,103.34 26.82,55.37 18.33,34.28 6.95,40.26 2.38,41.39 -2.33,41.40 -6.91,40.28 -11.08,38.09 -14.61,34.97 -17.29,31.10 -18.97,26.70 -19.54,22.02 -18.98,17.34 -17.31,12.94 -14.64,9.06 -11.12,5.93 Z" fill="currentColor" stroke="transparent" stroke-width="0" stroke-linejoin="round" stroke-linecap="round" pointer-events="all" transform="translate(264, 166)"/></svg>