<svg xmlns="http://www.w3.org/2000/svg" width="564.98435" height="512.2962" viewBox="0 0 564.98435 512.2962" xmlns:xlink="http://www.w3.org/1999/xlink"><g><path d="M390.42662,511.00598H230.11441c-24.04481,0-43.60692-19.5621-43.60692-43.60736V43.60692c0-24.04481,19.56212-43.60692,43.60692-43.60692h160.31224c24.04437,0,43.60645,19.56211,43.60645,43.60691,2.98416,170.18169,8.073,360.75835,0,423.79168,0,24.04529-19.56207,43.60736-43.60645,43.60736l-.00003,.00003Z" fill="#3f3d56"/><path d="M436.26875,155.88451c-1.01743,0-1.84479,.82736-1.84479,1.84479v59.03313c0,1.01743,.82736,1.84479,1.84479,1.84479s1.84479-.82736,1.84479-1.84479v-59.03313c0-1.01743-.82736-1.84479-1.84479-1.84479Z" fill="#3f3d56"/><path d="M429.88273,43.60724V467.39133c0,20.92908-16.28943,38.04871-36.88647,39.37695h-.00922c-.30441,.01846-.60876,.03693-.92239,.04617-.54425,.02765-1.08841,.03687-1.64182,.03687,0,0-2.02927-.14761-5.7373-.42432-3.7449-.2767-9.19623-.6918-15.99432-1.23596-2.03845-.15686-4.18765-.33209-6.45676-.51654-4.51968-.36899-9.48218-.77484-14.80438-1.23602-2.12149-.17526-4.3168-.36893-6.5582-.56265-11.4561-.98697-24.28661-2.13995-37.8181-3.44974-2.28752-.21219-4.59351-.43356-6.91794-.66415-.60875-.06458-105.47714-26.42651-105.47714-31.37057V43.60724c0-21.79609,17.66384-39.45993,39.45998-39.45993h23.55789c3.76338,0,6.7888,2.9332,7.11166,6.68735,.02763,.24906,.05534,.49807,.10146,.74714,.68256,3.77261,4.14153,6.40141,7.97865,6.40141h82.80478c3.83713,0,7.29611-2.6288,7.97867-6.40141,.04611-.24906,.07382-.49807,.1015-.74714,.32281-3.75414,3.34824-6.68735,7.1116-6.68735h23.55795c21.79608,0,39.45993,17.66384,39.45993,39.45993h-.00003Z" fill="#fff"/><path d="M185.58526,111.60966c-1.01742,0-1.84479,.82736-1.84479,1.84479v14.75828c0,1.01743,.82736,1.84479,1.84479,1.84479s1.84479-.82736,1.84479-1.84479v-14.75828c0-1.01742-.82736-1.84479-1.84479-1.84479Z" fill="#3f3d56"/><path d="M185.58526,155.88451c-1.01742,0-1.84479,.82736-1.84479,1.84479v28.59416c0,1.01743,.82736,1.84479,1.84479,1.84479s1.84479-.82736,1.84479-1.84479v-28.59418c0-1.01743-.82736-1.84479-1.84479-1.84479v.00002Z" fill="#3f3d56"/><path d="M185.58526,196.46979c-1.01742,0-1.84479,.82736-1.84479,1.84479v28.59418c0,1.01743,.82736,1.84479,1.84479,1.84479s1.84479-.82736,1.84479-1.84479v-28.59418c0-1.01743-.82736-1.84479-1.84479-1.84479Z" fill="#3f3d56"/><rect x="217.40784" y="10.60766" width="35.97331" height="4.61196" rx=".31021" ry=".31021" fill="#e6e6e6"/><circle cx="372.69417" cy="11.53006" r="3.68957" fill="#e6e6e6"/><circle cx="382.84047" cy="11.53006" r="3.68957" fill="#e6e6e6"/><circle cx="392.9868" cy="11.53006" r="3.68957" fill="#e6e6e6"/></g><path d="M14.31431,511.1062c0,.66003,.53003,1.19,1.19006,1.19H563.79435c.65997,0,1.19-.52997,1.19-1.19,0-.65997-.53003-1.19-1.19-1.19H15.50437c-.66003,0-1.19006,.53003-1.19006,1.19Z" fill="#ccc"/><g><polygon points="189.13337 503.29034 177.88964 503.28925 172.54091 459.92004 189.13563 459.9212 189.13337 503.29034" fill="#ffb6b6"/><path d="M150.61091,503.03528h0c-.35009,.58963-.53482,2.49265-.53482,3.17831h0c0,2.1076,1.70851,3.81616,3.81617,3.81616h34.82056c1.43779,0,2.60341-1.16556,2.60341-2.60342v-1.44968s1.72254-4.35709-1.82386-9.72742c0,0-4.40771,4.20505-10.99395-2.3812l-1.94223-3.51849-14.05904,10.28207-7.79271,.9592c-1.70489,.20984-3.21643-.03256-4.0934,1.44443h-.00014v.00003Z" fill="#2f2e41"/></g><g><polygon points="126.95369 443.05221 115.71001 443.01542 110.49898 399.62947 127.09363 399.68329 126.95369 443.05221" fill="#ffb6b6"/><path d="M88.43223,442.67487h0c-.35195,.5885-.54273,2.49094-.54489,3.1766h0c-.0067,2.10759,1.69638,3.82159,3.80403,3.82827l34.82038,.11053c1.43776,.00456,2.60709-1.15728,2.61167-2.59513l.0046-1.44968s1.73635-4.35158-1.79297-9.73316c0,0-4.42102,4.19104-10.98634-2.41607l-1.93104-3.52463-14.09161,10.23739-7.79573,.93448c-1.70554,.20442-3.2163-.04278-4.09795,1.43142h-.00015Z" fill="#2f2e41"/></g><path d="M172.73446,240l-14,1s-47.39555,26.94744-51.39555,32.94744-9.5,14.5-4.5,23.5,1.19455,117.97274,1.19455,117.97274l23.89279-5.40494,15.30821-114.01524,32-4.5s11,23.73227,7,43.36615-6,31.63385-6,31.63385l-5,116,19.5-.5,17.5-107.5,29.99999-85-39-46-26.49999-3.5Z" fill="#2f2e41"/><path d="M241.73446,117l-29,3-3,10-28,15,9,63-7,11,3,11s-8,1-7,7l-18,3s23.87402,4.87402,28.93701,28.93701,47.06299,27.06299,47.06299,27.06299l33-103,3-61-23-6-9-9Z" fill="#e6e6e6"/><circle cx="226.451" cy="90.66142" r="22.54398" fill="#ffb6b6"/><path d="M214.73446,111h0s-20-1-18-17c-4.95023-17.03827-.56866-28.10098,15-32,0,0,4-1,5-1,13.15295,0,20,4,20,4,0,0-1-3.96063,0-2.98031s2,2.98031,2,2.98031c0,0,10,5,10,15s0,6,0,6c0,0-2,0-4-6s-14.94882-2-14.94882-2l.94882,2-3-1-3,3-2-1s-8,0-7,0,.30315,6.79592,.30315,6.79592l-7.30315,8.20408,8,15h-2Z" fill="#2f2e41"/><path d="M108.18012,230.35401c-5.69337,3.10727-8.70576,8.56321-6.72842,12.18627s8.19564,4.04119,13.88902,.9339c2.49218-1.36017,4.47051-3.1704,5.74165-5.07992l23.95923-13.46902-6.5601-11.10881-22.92283,14.45689c-2.29362,.03603-4.88636,.72053-7.37854,2.08069Z" fill="#ffb6b6"/><path d="M188.97834,145.46667s-9.39215-3.57597-12.62811,.7285-24.61287,56.535-24.61287,56.535l-31.36392,16.38001,8.81983,15.3588,40.3873-13.4462,26.6467-48.73349-7.24893-26.82262Z" fill="#e6e6e6"/><g><path d="M485.14933,316.99789v105.99999c0,9.37402-7.62598,17-17,17H206.14933c-9.37402,0-17-7.62598-17-17v-105.99999c0-9.37402,7.62598-17,17-17H468.14933c9.37402,0,17,7.62598,17,17Z" fill="#fff"/><path d="M485.14933,316.99789v105.99999c0,9.37402-7.62598,17-17,17H206.14933c-9.37402,0-17-7.62598-17-17v-105.99999c0-9.37402,7.62598-17,17-17H468.14933c9.37402,0,17,7.62598,17,17Zm-17,120.99999c8.28424,0,15-6.71573,15-15v-53.44095c0-37.31184-30.24719-67.55906-67.55905-67.55906H206.14933c-8.28427,0-15,6.71573-15,15v106.00001c0,8.28427,6.71573,15,15,15H468.14933Z" fill="#3f3d56"/><g><path d="M306.7598,364.03938h-34.22064c-.86273,0-1.5647,.70166-1.5647,1.56439s.70197,1.56476,1.5647,1.56476h34.22064c.86273,0,1.56439-.70203,1.56439-1.56476s-.70166-1.56439-1.56439-1.56439Z" fill="#ffd32e"/><path d="M358.7598,364.03938h-34.22064c-.86273,0-1.5647,.70166-1.5647,1.56439s.70197,1.56476,1.5647,1.56476h34.22064c.86273,0,1.56439-.70203,1.56439-1.56476s-.70166-1.56439-1.56439-1.56439Z" fill="#ffd32e"/></g><g><path d="M306.7598,381.14545h-34.22064c-.86273,0-1.5647,.70166-1.5647,1.56439s.70197,1.56476,1.5647,1.56476h34.22064c.86273,0,1.56439-.70203,1.56439-1.56476s-.70166-1.56439-1.56439-1.56439Z" fill="#ffd32e"/><path d="M358.7598,381.14545h-34.22064c-.86273,0-1.5647,.70166-1.5647,1.56439s.70197,1.56476,1.5647,1.56476h34.22064c.86273,0,1.56439-.70203,1.56439-1.56476s-.70166-1.56439-1.56439-1.56439Z" fill="#ffd32e"/><path d="M412.3242,382.70986c0-.86273-.70166-1.56439-1.56439-1.56439h-34.22064c-.86273,0-1.5647,.70166-1.5647,1.56439s.70197,1.56476,1.5647,1.56476h34.22064c.86273,0,1.56439-.70203,1.56439-1.56476Z" fill="#ffd32e"/></g><g><path d="M286.7598,350.38064c.86273,0,1.56439-.70197,1.56439-1.5647s-.70166-1.56439-1.56439-1.56439h-34.22064c-.86273,0-1.5647,.70166-1.5647,1.56439s.70197,1.5647,1.5647,1.5647h34.22064Z" fill="#ffd32e"/><path d="M387.53916,349.74429h34.22064c.86273,0,1.56439-.70203,1.56439-1.56476s-.70166-1.56439-1.56439-1.56439h-34.22064c-.86273,0-1.5647,.70166-1.5647,1.56439s.70197,1.56476,1.5647,1.56476Z" fill="#ffd32e"/><path d="M301.17606,350.07339h70.94684c.86273,0,1.56439-.70197,1.56439-1.5647s-.70166-1.56439-1.56439-1.56439h-70.94684c-.86273,0-1.56476,.70166-1.56476,1.56439s.70203,1.5647,1.56476,1.5647Z" fill="#ffd32e"/></g><path d="M329.09021,396.687h-34.22064c-.86273,0-1.5647,.70166-1.5647,1.56439s.70197,1.5647,1.5647,1.5647h34.22064c.86273,0,1.56439-.70197,1.56439-1.5647s-.70166-1.56439-1.56439-1.56439Z" fill="#ffd32e"/><g><path d="M439.6113,316.19874v106c0,9.37402-7.62598,17-17,17h-106c-9.37402,0-17-7.62598-17-17v-106c0-9.37402,7.62598-17,17-17h106c9.37402,0,17,7.62598,17,17Z" fill="#fff"/><path d="M439.6113,316.19874v106c0,9.37402-7.62598,17-17,17h-106c-9.37402,0-17-7.62598-17-17v-106c0-9.37402,7.62598-17,17-17h106c9.37402,0,17,7.62598,17,17Zm-23.57587,121c11.91602,0,21.57587-9.65985,21.57587-21.57584v-46.86511c0-37.31183-30.24719-67.55905-67.55902-67.55905h-53.44095c-8.28427,0-15,6.71573-15,15v91.2106c0,16.45221,13.33716,29.78937,29.78937,29.78937h84.6348v.00003h-.00006Z" fill="#3f3d56"/><path d="M383.72178,342.49095h-34.22061c-.86273,0-1.5647-.702-1.5647-1.56473s.702-1.56439,1.5647-1.56439h34.22061c.86273,0,1.56439,.70166,1.56439,1.56439s-.70166,1.5647-1.56439,1.5647v.00003Z" fill="#ffd32e"/><path d="M383.72178,375.85458h-34.22061c-.86273,0-1.5647-.702-1.5647-1.56473s.702-1.56439,1.5647-1.56439h34.22061c.86273,0,1.56439,.70166,1.56439,1.56439s-.70166,1.5647-1.56439,1.5647v.00003Z" fill="#ffd32e"/><path d="M366.72178,421.85458h-34.22061c-.86273,0-1.5647-.702-1.5647-1.56473s.702-1.56439,1.5647-1.56439h34.22061c.86273,0,1.56439,.70166,1.56439,1.56439s-.70166,1.5647-1.56439,1.5647v.00003Z" fill="#ffd32e"/><path d="M402.08494,359.18369h-70.9469c-.86273,0-1.5647-.702-1.5647-1.56473s.702-1.56439,1.5647-1.56439h70.9469c.86273,0,1.56439,.70166,1.56439,1.56439s-.70166,1.5647-1.56439,1.5647v.00003Z" fill="#ffd32e"/></g><g><g><path d="M419.66655,257.46159c0-33.0672-27.94839-51.25775-59.87342-59.87342-40.93082-11.04603-70.90792,11.30614-59.87342,59.87342,2.50085,11.00731,8.48242,23.86325,15.88639,34.86015h58.75409c19.62598-12.77725,45.10635-9.19397,45.10635-34.86015Z" fill="#ffd32e"/><path d="M358.91428,319.97157c3.34221-6.37133,7.57932-10.96804,12.24824-14.467h-55.03043c14.16355,20.23175,32.94678,33.21654,42.78219,14.467Z" fill="#ffd32e"/></g><path d="M352.56421,222.06211c3.53286,0,6.3968,2.86395,6.3968,6.39681v12.79359h-12.79359v-12.79359c0-3.53286,2.86395-6.39681,6.3968-6.39681Zm9.5952,19.19038v-12.79359c0-5.29928-4.29592-9.5952-9.5952-9.5952s-9.5952,4.29592-9.5952,9.5952v12.79359c-3.53286,0-6.3968,2.86395-6.3968,6.39681v15.99198c0,3.53286,2.86395,6.39681,6.3968,6.39681h19.19039c3.53286,0,6.3968-2.86395,6.3968-6.39681v-15.99198c0-3.53286-2.86395-6.39681-6.3968-6.39681h.00001Zm-19.19039,3.19839h19.19038c1.76643,0,3.1984,1.43196,3.1984,3.19839v15.99198c0,1.76643-1.43198,3.19839-3.1984,3.19839h-19.19038c-1.76643,0-3.1984-1.43196-3.1984-3.19839v-15.99198c0-1.76643,1.43198-3.19839,3.1984-3.19839Z" fill="#fff"/></g></g><path d="M261.15048,296.5433c-.77129,6.44009,1.92574,12.05862,6.02397,12.54944s8.04572-4.33197,8.817-10.77206c.33762-2.81903,.01053-5.48059-.80762-7.62363l2.92577-27.32944-12.85422-1.09985-1.51991,27.05823c-1.30106,1.88925-2.24738,4.39828-2.58499,7.21732Z" fill="#ffb6b6"/><path d="M264.23446,133.5s14-4,17,2,10,85,10,85l-13.5,63.05905-15.5-4.05905,8-64-11-48,5-34Z" fill="#e6e6e6"/><g><circle cx="58.49998" cy="266.83965" r="58.49999" fill="#ffd32e"/><path d="M58.49998,240.65068c4.13251,0,7.48256,3.35007,7.48256,7.48257v14.96512h-14.96512v-14.96512c0-4.13251,3.35007-7.48257,7.48256-7.48257Zm11.22385,22.44766v-14.96512c0-6.19876-5.02509-11.22385-11.22385-11.22385s-11.22385,5.02509-11.22385,11.22385v14.96512c-4.13251,0-7.48256,3.35007-7.48256,7.48257v18.70639c0,4.13251,3.35007,7.48257,7.48256,7.48257h22.44768c4.13251,0,7.48256-3.35007,7.48256-7.48257v-18.70639c0-4.13251-3.35007-7.48257-7.48256-7.48257h.00002Zm-22.44768,3.74127h22.44766c2.06625,0,3.74129,1.67502,3.74129,3.74127v18.70639c0,2.06625-1.67503,3.74127-3.74129,3.74127h-22.44766c-2.06625,0-3.74129-1.67502-3.74129-3.74127v-18.70639c0-2.06625,1.67503-3.74127,3.74129-3.74127Z" fill="#fff"/></g></svg>