<svg xmlns="http://www.w3.org/2000/svg" width="844.6693" height="576" viewBox="0 0 844.6693 576"><path id="ffb53e15-96a8-49e4-8474-dde31f47c838-268" d="M680.39317,722.64032a50.80739,50.80739,0,0,1-2.37366,14.04469c-.03208.10553-.06768.20946-.10233.315h-8.85729c.0093-.09462.01893-.20016.02824-.315.59052-6.78932-2.78328-47.61854-6.85443-54.685C662.59038,682.57322,681.07992,701.06757,680.39317,722.64032Z" transform="translate(-177.66535 -162)" fill="#e6e6e6"/><path id="b0d53736-93e7-4057-be18-9e9cd17f391b-269" d="M679.72853,736.685c-.0741.10553-.15109.21107-.23.315h-6.645c.05037-.08982.10874-.19535.17642-.315,1.09766-1.981,4.34669-7.9043,7.36252-14.04469,3.23973-6.59879,6.2145-13.44776,5.964-15.92662C686.43412,707.27245,688.6769,724.316,679.72853,736.685Z" transform="translate(-177.66535 -162)" fill="#e6e6e6"/><path d="M1020.97855,557.53949a1.35446,1.35446,0,0,1-1.34973-1.25962,60.446,60.446,0,0,0-60.12025-56.01c-1.82627,0-3.7415.09259-5.6926.27547a1.35883,1.35883,0,0,1-1.30179-.67528,71.757,71.757,0,0,0-131.22234,15.60721,1.36278,1.36278,0,0,1-1.3313.9772l-.4533-.01356c-.23752-.00793-.475-.0162-.71455-.0162A50.71188,50.71188,0,0,0,769.3751,556.4644a1.35443,1.35443,0,0,1-1.32535,1.07509H654.12589a1.35453,1.35453,0,1,1,0-2.70906H766.96275a53.44356,53.44356,0,0,1,51.82994-41.1148c.06564,0,.13112.00066.19652.00132a75.09188,75.09188,0,0,1,26.10971-37.4907A73.75529,73.75529,0,0,1,890.21349,461a74.704,74.704,0,0,1,64.21542,36.77243c1.73616-.14055,3.44106-.21165,5.07966-.21165a63.16414,63.16414,0,0,1,62.8227,58.52927,1.35444,1.35444,0,0,1-1.25648,1.44614C1021.04254,557.5385,1021.01047,557.53949,1020.97855,557.53949Z" transform="translate(-177.66535 -162)" fill="#e5e5e5"/><path d="M955.74557,579.343H721.86446a1.35454,1.35454,0,0,1,0-2.70907H955.74557a1.35454,1.35454,0,0,1,0,2.70907Z" transform="translate(-177.66535 -162)" fill="#e5e5e5"/><path d="M789.8843,604H696.357a1.35453,1.35453,0,1,1,0-2.70906H789.8843a1.35453,1.35453,0,0,1,0,2.70906Z" transform="translate(-177.66535 -162)" fill="#e5e5e5"/><path d="M611.13068,276.35645a1.99989,1.99989,0,0,1-1.99292-1.85987A70.684,70.684,0,0,0,538.83454,209c-2.13208,0-4.37183.1084-6.65747.32227a1.99926,1.99926,0,0,1-1.92188-.99707,83.98854,83.98854,0,0,0-153.59033,18.26709,1.99074,1.99074,0,0,1-1.9668,1.44287l-.53174-.01612c-.27661-.00927-.553-.019-.83178-.019a59.23514,59.23514,0,0,0-57.72315,46.769,2,2,0,0,1-1.957,1.58741h-133.989a2,2,0,0,1,0-4H312.05378A63.27072,63.27072,0,0,1,373.26545,224a87.98779,87.98779,0,0,1,159.81616-18.76953c1.96728-.15332,3.89721-.23047,5.75293-.23047A74.69706,74.69706,0,0,1,613.128,274.21631a1.99984,1.99984,0,0,1-1.85522,2.13525C611.22516,276.355,611.1778,276.35645,611.13068,276.35645Z" transform="translate(-177.66535 -162)" fill="#e5e5e5"/><path d="M587.33454,302h-328a2,2,0,0,1,0-4h328a2,2,0,0,1,0,4Z" transform="translate(-177.66535 -162)" fill="#e5e5e5"/><path d="M339.33454,331h-110a2,2,0,0,1,0-4h110a2,2,0,1,1,0,4Z" transform="translate(-177.66535 -162)" fill="#e5e5e5"/><polygon points="368.965 551.748 373.164 540.946 333.501 519.609 327.303 535.551 368.965 551.748" fill="#9f616a"/><path d="M569.12947,685.57018a14.537,14.537,0,0,0-18.82541,8.28611l-2.83287,7.28141L543.10386,712.377l-1.06764,2.75583,13.99569,5.44429,13.5376-34.83232Z" transform="translate(-177.66535 -162)" fill="#2f2e41"/><path d="M543.10553,692.96045l-1.8264,4.84312-4.55791,12.08831-.10933.30232c-11.61253,1.49208-24.3429-1.433-36.11755-5.97715a146.81035,146.81035,0,0,1-13.824-6.16859c-6.65871-3.36449-12.62074-6.91546-17.37706-9.9525-7.16123-4.59621-11.5893-8.04729-11.5893-8.04729s-1.16983,1.05713-3.28667,2.86993c-2.83723,2.42758-7.37089,6.21841-13.11358,10.68071q-3.286,2.57124-7.05621,5.3789c-18.5283,13.74308-42.306-22.92849-42.306-22.92849s6.68735-4.25751,8.43438-5.0842c5.62545-2.66146,18.84133-8.94156,30.24318-14.52256,5.87413-2.87968,11.25984-5.57949,14.87579-7.49831,12.80439-6.81722,28.72119,6.08252,28.72119,6.08252Z" transform="translate(-177.66535 -162)" fill="#2f2e41"/><path d="M543.10553,692.96045l-1.8264,4.84312-4.55791,12.08831-.10933.30232c-11.61253,1.49208-24.3429-1.433-36.11755-5.97715a146.81035,146.81035,0,0,1-13.824-6.16859c-6.65871-3.36449-12.62074-6.91546-17.37706-9.9525-7.16123-4.59621-11.5893-8.04729-11.5893-8.04729s-1.16983,1.05713-3.28667,2.86993c-2.83723,2.42758-7.37089,6.21841-13.11358,10.68071q-3.286,2.57124-7.05621,5.3789c-18.5283,13.74308-42.306-22.92849-42.306-22.92849s6.68735-4.25751,8.43438-5.0842c5.62545-2.66146,18.84133-8.94156,30.24318-14.52256,5.87413-2.87968,11.25984-5.57949,14.87579-7.49831,12.80439-6.81722,28.72119,6.08252,28.72119,6.08252Z" transform="translate(-177.66535 -162)" opacity="0.14"/><path d="M409.91524,620.97879A8.86374,8.86374,0,0,0,403.123,632.7514l-14.9083,13.71185,6.123,11.092,20.78144-19.65948a8.91178,8.91178,0,0,0-5.20393-16.917Z" transform="translate(-177.66535 -162)" fill="#9f616a"/><path d="M365.057,683.32069q-1.01011,0-2.02323-.08724a23.82,23.82,0,0,1-19.18666-12.81326l-23.88438-45.971a13.19042,13.19042,0,0,1,22.80918-13.2005l22.03493,49.441,29.98315-24.36139,17.36051,6.7581L382.832,675.45392A24.08989,24.08989,0,0,1,365.057,683.32069Z" transform="translate(-177.66535 -162)" fill="#ccc"/><path d="M269.29839,737.292a8.86373,8.86373,0,0,0,6.17444-12.108l14.17941-14.46432L282.96392,699.959l-19.73717,20.70767a8.91177,8.91177,0,0,0,6.07164,16.62533Z" transform="translate(-177.66535 -162)" fill="#9f616a"/><path d="M404.20681,482.0936h1.38944V444.03012A22.0301,22.0301,0,0,1,427.62634,422H508.269a22.03011,22.03011,0,0,1,22.03015,22.03005V652.84931a22.03011,22.03011,0,0,1-22.03009,22.03012H427.62644a22.0301,22.0301,0,0,1-22.03016-22.03V509.18783h-1.38947Z" transform="translate(-177.66535 -162)" fill="#3f3d56"/><path d="M426.7375,427.73147H437.264a7.81623,7.81623,0,0,0,7.23676,10.76821h46.19914a7.81621,7.81621,0,0,0,7.23676-10.76822h9.83181a16.45184,16.45184,0,0,1,16.45185,16.45182V652.69612A16.45184,16.45184,0,0,1,507.76852,669.148h-81.031a16.45184,16.45184,0,0,1-16.45185-16.45183h0V444.18329A16.45183,16.45183,0,0,1,426.7375,427.73147Z" transform="translate(-177.66535 -162)" fill="#fff"/><circle cx="289.63064" cy="386.68519" r="46.691" fill="#ffd32e"/><polygon points="285.181 406.395 271.207 388.426 279.333 382.105 285.95 390.613 308.304 367.016 315.779 374.098 285.181 406.395" fill="#fff"/><path d="M357.77659,591.2957H302.9511a4.2585,4.2585,0,0,1-4.2537-4.2537V563.41032a31.66645,31.66645,0,0,1,63.33289,0V587.042A4.2585,4.2585,0,0,1,357.77659,591.2957Z" transform="translate(-177.66535 -162)" fill="#2f2e41"/><polygon points="365.615 566.94 370.631 556.493 332.724 532.171 325.32 547.59 365.615 566.94" fill="#9f616a"/><path d="M567.87745,702.57381a14.537,14.537,0,0,0-19.40636,6.81534l-3.3839,7.04225-5.2179,10.87057-1.2762,2.66566,13.53606,6.50345,16.17362-33.68934Z" transform="translate(-177.66535 -162)" fill="#2f2e41"/><path d="M541.36266,707.94292l-2.19308,4.68849-5.47314,11.70241-.13223.293c-11.69284.59552-24.16085-3.299-35.5516-8.73426a146.80908,146.80908,0,0,1-13.3092-7.21239c-6.38056-3.86611-12.05216-7.86463-16.5611-11.25811-6.787-5.13279-10.93681-8.91386-10.93681-8.91386s-1.24758.96414-3.49744,2.60895c-3.01535,2.20243-7.82684,5.63375-13.89538,9.64168q-3.47379,2.31119-7.44859,4.82089c-19.52937,12.279-47.30121,27.23315-70.92365,30.39031-41.48767,5.54871-31.723-49.81553-31.723-49.81553l33.01812-17.14716,14.01838,2.84526,15.60637,3.15716,5.52967,1.12487s1.04935-.397,2.85473-1.087c5.8133-2.22141,19.47259-7.46764,31.26951-12.15618,6.078-2.41988,11.65521-4.698,15.4079-6.3333,13.29028-5.81336,28.169,8.27109,28.169,8.27109Z" transform="translate(-177.66535 -162)" fill="#2f2e41"/><circle cx="160.46092" cy="408.24461" r="22.10625" fill="#9f616a"/><path d="M309.36675,631.60885l19.25681,54.59472-.11562.19108c-2.67841,4.42771-3.55375,7.99923-2.53117,10.32824a4.50053,4.50053,0,0,0,2.85334,2.46148l45.57013-31.85245-1.5956-12.76618.08885-.14263c4.40463-7.0475,5.83084-13.4299,4.23963-18.969-2.06477-7.18782-8.626-10.451-8.692-10.48333l-.15877-.12508L345.55344,597.1823l-30.38286,5.3979Z" transform="translate(-177.66535 -162)" fill="#ccc"/><path d="M280.08239,727.43577l-12.9005-15.87754,31.09874-51.337,14.49909-44.81756.44979.14539-.44979-.14539a18.00406,18.00406,0,1,1,32.1047,15.5369L318.266,670.82036Z" transform="translate(-177.66535 -162)" fill="#ccc"/><path d="M369.52181,565.77349H335.99737l-.34386-4.81311-1.71884,4.81311h-5.162l-.68126-9.53944-3.40674,9.53944h-9.98831v-.47263a25.07772,25.07772,0,0,1,25.04935-25.04958h4.72656a25.07791,25.07791,0,0,1,25.04958,25.04958Z" transform="translate(-177.66535 -162)" fill="#2f2e41"/><path d="M335.723,595.707a4.34512,4.34512,0,0,1-.7528-.06646l-24.5481-4.33125V550.73853h27.02273l-.669.78c-9.30821,10.85581-2.29555,28.45864,2.713,37.98516a4.19074,4.19074,0,0,1-.333,4.4494A4.2366,4.2366,0,0,1,335.723,595.707Z" transform="translate(-177.66535 -162)" fill="#2f2e41"/><path d="M772.08651,738h-539a1,1,0,1,1,0-2h539a1,1,0,1,1,0,2Z" transform="translate(-177.66535 -162)" fill="#cbcbcb"/></svg>