<svg xmlns="http://www.w3.org/2000/svg" width="736.07817" height="461.6568" viewBox="0 0 736.07817 461.6568"><path d="M486.92205,658.335a2.80741,2.80741,0,0,1-2.03464-4.86592l.19237-.76477q-.038-.09187-.07644-.18358a7.53909,7.53909,0,0,0-13.90673.05167c-2.27452,5.4781-5.17038,10.96553-5.88341,16.75771a22.30361,22.30361,0,0,0,.39153,7.67061A89.41943,89.41943,0,0,1,457.4706,639.862a86.307,86.307,0,0,1,.53535-9.6283q.44349-3.93126,1.23055-7.80653a90.45553,90.45553,0,0,1,17.93812-38.3373,24.07272,24.07272,0,0,0,10.0118-10.38735,18.36254,18.36254,0,0,0,1.67-5.0179c-.48738.06393-1.83778-7.3591-1.47017-7.81452-.67924-1.03072-1.895-1.54307-2.63681-2.54886-3.68943-5.0021-8.77253-4.12871-11.42612,2.66876-5.6687,2.861-5.72357,7.60577-2.24528,12.16916,2.2129,2.90325,2.517,6.83168,4.45862,9.93984-.19981.25572-.40756.50344-.6073.75916a91.04013,91.04013,0,0,0-9.50223,15.05379,37.84587,37.84587,0,0,0-2.25945-17.5787c-2.16269-5.21725-6.21632-9.61123-9.786-14.12154-4.2878-5.41757-13.08033-3.05323-13.83575,3.81439q-.011.09975-.02142.19942.79533.44865,1.55706.95246a3.808,3.808,0,0,1-1.53532,6.92993l-.07765.012a37.89006,37.89006,0,0,0,.99876,5.66515c-4.57949,17.71008,5.30731,24.16047,19.42432,24.45023.31163.15978.61531.31957.92694.47144a92.92556,92.92556,0,0,0-5.00193,23.53931,88.13664,88.13664,0,0,0,.06393,14.23066l-.024-.16778a23.28922,23.28922,0,0,0-7.95036-13.44764c-6.11822-5.02589-14.76211-6.87666-21.36259-10.91649a4.37072,4.37072,0,0,0-6.69422,4.252q.01328.0882.027.17642a25.57824,25.57824,0,0,1,2.86849,1.38226q.79532.44877,1.55706.95246a3.8081,3.8081,0,0,1-1.53533,6.93l-.07772.01193c-.05591.008-.10387.016-.15972.024a37.92276,37.92276,0,0,0,6.97545,10.92265c2.86344,15.46021,15.16195,16.927,28.31753,12.42487h.008a92.89671,92.89671,0,0,0,6.24043,18.21781h22.2928c.08-.24769.15184-.5034.22379-.75113a25.329,25.329,0,0,1-6.16856-.36745c1.654-2.02957,3.308-4.07513,4.962-6.10463a1.384,1.384,0,0,0,.10388-.11986c.839-1.03867,1.68595-2.06946,2.52491-3.10817l.00045-.00126a37.1011,37.1011,0,0,0-1.08711-9.45126Z" transform="translate(-231.96091 -219.1716)" fill="#f2f2f2"/><path d="M757.62294,452.70013H249.05288a17.11178,17.11178,0,0,1-17.092-17.092V236.26357a17.11178,17.11178,0,0,1,17.092-17.092H757.62294a17.11178,17.11178,0,0,1,17.092,17.092V435.60816A17.11178,17.11178,0,0,1,757.62294,452.70013Z" transform="translate(-231.96091 -219.1716)" fill="#f2f2f2"/><path d="M639.013,441.79916H329.78054a87.01423,87.01423,0,0,1-86.916-86.916V316.998a87.01476,87.01476,0,0,1,86.916-86.91661h347.1176a87.01475,87.01475,0,0,1,86.916,86.91661A124.94266,124.94266,0,0,1,639.013,441.79916Z" transform="translate(-231.96091 -219.1716)" fill="#fff"/><path d="M559.24356,287.14717H354.8372a4.408,4.408,0,1,1,0-8.81606H559.24356a4.408,4.408,0,0,1,0,8.81606Z" transform="translate(-231.96091 -219.1716)" fill="#e6e6e6"/><path d="M662.71766,334.178H354.8372a4.408,4.408,0,1,1,0-8.81606H662.71766a4.408,4.408,0,0,1,0,8.81606Z" transform="translate(-231.96091 -219.1716)" fill="#e6e6e6"/><path d="M662.71766,381.20879H354.8372a4.408,4.408,0,1,1,0-8.81606H662.71766a4.408,4.408,0,0,1,0,8.81606Z" transform="translate(-231.96091 -219.1716)" fill="#e6e6e6"/><path d="M662.71766,381.20879H354.8372a4.408,4.408,0,1,1,0-8.81606H662.71766a4.408,4.408,0,0,1,0,8.81606Z" transform="translate(-231.96091 -219.1716)" fill="#e6e6e6"/><path d="M632.91728,300.31211c2.81877-15.36183,9.4074-28.81166,20.98989-39.72869a3.43411,3.43411,0,0,1,4.63534-1.43055l30.004,15.852a3.43412,3.43412,0,0,1,1.43053,4.63534l-20.9899,39.72869a3.4341,3.4341,0,0,1-4.63532,1.43056l-30.004-15.852A3.43411,3.43411,0,0,1,632.91728,300.31211Z" transform="translate(-231.96091 -219.1716)" fill="#e6e6e6"/><path d="M641.55859,289.52834c.37114-8.01874,6.2187-16.69433,13.49421-25.54122a3.21608,3.21608,0,0,1,4.34114-1.33974l25.7859,13.62348a3.21621,3.21621,0,0,1,1.33989,4.34121l-18.67815,35.35314a3.21622,3.21622,0,0,1-4.34128,1.33967l-15.97383-8.43947A14.32593,14.32593,0,0,1,641.55859,289.52834Z" transform="translate(-231.96091 -219.1716)" fill="#fff"/><path d="M671.83784,294.64448l-20.13568-10.567a1.3644,1.3644,0,0,1,1.268-2.41628l20.13568,10.567a1.3644,1.3644,0,0,1-1.268,2.41628Z" transform="translate(-231.96091 -219.1716)" fill="#ffd32e"/><path d="M659.609,279.77669l-4.42985-2.32474a1.3644,1.3644,0,1,1,1.268-2.41628l4.42985,2.32474a1.3644,1.3644,0,0,1-1.268,2.41628Z" transform="translate(-231.96091 -219.1716)" fill="#ffd32e"/><path d="M666.2632,305.26709l-20.13568-10.567a1.3644,1.3644,0,0,1,1.268-2.41629l20.13568,10.567a1.3644,1.3644,0,0,1-1.268,2.41628Z" transform="translate(-231.96091 -219.1716)" fill="#ffd32e"/><path d="M669.05052,299.95579l-20.13568-10.567a1.3644,1.3644,0,1,1,1.268-2.41628l20.13568,10.567a1.3644,1.3644,0,0,1-1.268,2.41628Z" transform="translate(-231.96091 -219.1716)" fill="#ffd32e"/><path d="M849.88253,569.91549H839.4673a3.75036,3.75036,0,0,0-3.75037,3.75037h0a3.75037,3.75037,0,0,1-3.75037,3.75037H797.24342a3.75036,3.75036,0,0,1-3.75037-3.75037l-.68657-3.80186.04463.05149-.04463-.05149-6.2941-8.02426a2.1845,2.1845,0,0,0-1.749-.84963H772.95954a2.22543,2.22543,0,0,0-2.22277,2.22277l-.24372,6.65112h-4.46246a7.13709,7.13709,0,0,0-7.1371,7.13709v46.48379a6.33358,6.33358,0,0,0,6.33359,6.33359h84.65545a6.33967,6.33967,0,0,0,6.33186-6.33359V576.24734A6.33185,6.33185,0,0,0,849.88253,569.91549Z" transform="translate(-231.96091 -219.1716)" fill="#f2f2f2"/><path d="M792.80991,569.69235H770.73677v-6.65112a2.22543,2.22543,0,0,1,2.22277-2.22276h11.80381a2.1845,2.1845,0,0,1,1.749.84963Z" transform="translate(-231.96091 -219.1716)" fill="#e6e6e6"/><path d="M804.11187,624.70355H767.25549a4.40547,4.40547,0,0,1-4.4005-4.4005v-10.0796a4.40547,4.40547,0,0,1,4.4005-4.4005H811.4918a4.40548,4.40548,0,0,1,4.4005,4.4005v2.69967A11.79379,11.79379,0,0,1,804.11187,624.70355Z" transform="translate(-231.96091 -219.1716)" fill="#fff"/><path d="M777.865,613.4261h-9.097a2.23134,2.23134,0,1,1,0-4.46268h9.097a2.23134,2.23134,0,1,1,0,4.46268Z" transform="translate(-231.96091 -219.1716)" fill="#f2f2f2"/><path d="M808.76049,620.46342H768.768a2.23135,2.23135,0,1,1,0-4.46269h39.99253a2.23134,2.23134,0,1,1,0,4.46269Z" transform="translate(-231.96091 -219.1716)" fill="#f2f2f2"/><path d="M886.88253,620.91549H876.4673a3.75036,3.75036,0,0,0-3.75037,3.75037h0a3.75037,3.75037,0,0,1-3.75037,3.75037H834.24342a3.75036,3.75036,0,0,1-3.75037-3.75037l-.68657-3.80186.04463.05149-.04463-.05149-6.2941-8.02426a2.1845,2.1845,0,0,0-1.749-.84963H809.95954a2.22543,2.22543,0,0,0-2.22277,2.22277l-.24372,6.65112h-4.46246a7.13709,7.13709,0,0,0-7.1371,7.13709v46.48379a6.33358,6.33358,0,0,0,6.33359,6.33359h84.65545a6.33967,6.33967,0,0,0,6.33186-6.33359V627.24734A6.33185,6.33185,0,0,0,886.88253,620.91549Z" transform="translate(-231.96091 -219.1716)" fill="#f2f2f2"/><path d="M829.80991,620.69235H807.73677v-6.65112a2.22543,2.22543,0,0,1,2.22277-2.22276h11.80381a2.1845,2.1845,0,0,1,1.749.84963Z" transform="translate(-231.96091 -219.1716)" fill="#e6e6e6"/><path d="M841.11187,675.70355H804.25549a4.40547,4.40547,0,0,1-4.4005-4.4005v-10.0796a4.40547,4.40547,0,0,1,4.4005-4.4005H848.4918a4.40548,4.40548,0,0,1,4.4005,4.4005v2.69967A11.79379,11.79379,0,0,1,841.11187,675.70355Z" transform="translate(-231.96091 -219.1716)" fill="#fff"/><path d="M814.865,664.4261h-9.097a2.23134,2.23134,0,1,1,0-4.46268h9.097a2.23134,2.23134,0,1,1,0,4.46268Z" transform="translate(-231.96091 -219.1716)" fill="#f2f2f2"/><path d="M845.76049,671.46342H805.768a2.23135,2.23135,0,1,1,0-4.46269h39.99253a2.23134,2.23134,0,1,1,0,4.46269Z" transform="translate(-231.96091 -219.1716)" fill="#f2f2f2"/><polygon points="489.468 444.144 480.868 444.143 476.777 410.972 489.47 410.972 489.468 444.144" fill="#ffb6b6"/><path d="M695.47178,676.00429a3.658,3.658,0,0,0,3.63478,3.64206h16.18935l.5016-1.03954,2.28993-4.72522.88687,4.72522.19629,1.03954H725.277l-.08723-1.04682-1.62838-19.5261-2.13-.13084-9.20325-.54522-2.26087-.13812v5.83021C708.25169,665.91412,694.78844,672.81294,695.47178,676.00429Z" transform="translate(-231.96091 -219.1716)" fill="#2f2e41"/><polygon points="631.857 377.722 627.7 385.251 596.682 372.802 602.817 361.69 631.857 377.722" fill="#ffb6b6"/><path d="M862.38214,625.75083a3.658,3.658,0,0,0,4.9451-1.42207l7.82377-14.17334-.66769-.94151-3.03015-4.28832,4.56539,1.50711,1.005.33053,2.951-5.346-.95862-.42952L861.1344,592.977l-1.1439,1.80151-4.92494,7.79371-1.21353,1.91259,5.10419,2.81754C859.72458,609.68612,859.258,624.80681,862.38214,625.75083Z" transform="translate(-231.96091 -219.1716)" fill="#2f2e41"/><path d="M735.81886,444.6866,768.31352,458.484s10.39645,22.195,3.20678,25.37538v58.67745l74.22231,42.9546-22.37177,37.36936s-28.716-7.41705-28.41614-14.1889,3.61044-9.4503-6.24916-10.31992-15.44473-.14376-15.17657-6.1866-34.82179-37.4637-34.82179-37.4637Z" transform="translate(-231.96091 -219.1716)" fill="#2f2e41"/><path d="M743.60369,455.95183l-8.23934-9.25659s-18.50541,30.386-18.43584,36.62747-15.70795,38.42757-15.70795,38.42757L681.65644,636.6106s37.735,8.96984,40.64049,9.21818,7.80518,1.77937,4.72422-4.035,0-5.81433,0-5.81433l1.8933-88.4336,14.68924-60.82419Z" transform="translate(-231.96091 -219.1716)" fill="#2f2e41"/><path d="M739.28289,366.97442l15.77752-3.7866,9.12362,11.19085,0,0a33.87137,33.87137,0,0,1,10.043,31.11677l-8.43794,43.52205s15.14641,13.88421,13.25311,21.45742c-3.07072,12.28287-36.93678,1.43612-42.76576,2.29581s-13.4022-8.572-14.6644-13.95378,3.886-18.29869,5.67991-18.00376-4.94942-26.71991-4.94942-26.71991.53171-18.08824,6.84272-23.137a34.934,34.934,0,0,0,9.23792-11.56853Z" transform="translate(-231.96091 -219.1716)" fill="#ffd32e"/><path d="M670.78324,298.738a7.32611,7.32611,0,0,0,8.57877,7.134l19.86016,30.64222,9.8262-3.40947L685.194,296.883a7.31584,7.31584,0,0,0-14.41081,1.855Z" transform="translate(-231.96091 -219.1716)" fill="#ffb6b6"/><path d="M750.42419,405.56048s7.47909-16.01357,1.79066-23.13108-9.84649-14.35291-13.02961-16.31277S723.31382,341.46274,720.116,340.785s-.7132-4.35677-5.17837-6.33133-5.74723-1.98925-5.73254-3.2713-10.88821-16.67672-10.88821-16.67672l-11.20714,6.95659L714.487,377.46782Z" transform="translate(-231.96091 -219.1716)" fill="#ffd32e"/><path d="M679.76746,555.41792c-14.33736-19.07034-22.62409-40.3958-22.89564-64.70856a5.246,5.246,0,0,1,3.19206-6.68782l48.86933-17.2913a5.246,5.246,0,0,1,6.6878,3.19207l22.89564,64.70856a5.246,5.246,0,0,1-3.192,6.68782L686.45529,558.61A5.246,5.246,0,0,1,679.76746,555.41792Z" transform="translate(-231.96091 -219.1716)" fill="#e6e6e6"/><path d="M676.6006,534.54689c-8.62305-8.71868-12.31418-24.26894-14.7194-41.60054a4.91292,4.91292,0,0,1,2.98946-6.26335l41.99908-14.86041a4.91312,4.91312,0,0,1,6.26358,2.98937l20.374,57.58182a4.91313,4.91313,0,0,1-2.98969,6.26343l-26.01756,9.20572A21.88448,21.88448,0,0,1,676.6006,534.54689Z" transform="translate(-231.96091 -219.1716)" fill="#fff"/><path d="M713.69551,505.83156l-32.71612,11.678a2.08427,2.08427,0,0,1-1.40137-3.92593l32.71613-11.678a2.08427,2.08427,0,1,1,1.40136,3.92593Z" transform="translate(-231.96091 -219.1716)" fill="#ffd32e"/><path d="M684.33435,504.17535l-7.19755,2.56916a2.08428,2.08428,0,0,1-1.40136-3.92594l7.19755-2.56916a2.08428,2.08428,0,0,1,1.40136,3.92594Z" transform="translate(-231.96091 -219.1716)" fill="#ffd32e"/><path d="M719.85626,523.091l-32.71612,11.678a2.08427,2.08427,0,1,1-1.40136-3.92593l32.71612-11.678a2.08427,2.08427,0,1,1,1.40136,3.92593Z" transform="translate(-231.96091 -219.1716)" fill="#ffd32e"/><path d="M716.77589,514.46128l-32.71613,11.678a2.08427,2.08427,0,1,1-1.40136-3.92593l32.71613-11.678a2.08427,2.08427,0,0,1,1.40136,3.92593Z" transform="translate(-231.96091 -219.1716)" fill="#ffd32e"/><circle cx="509.2349" cy="125.15701" r="16.93931" fill="#ffb6b6"/><path d="M723.3839,342.118a4.91828,4.91828,0,0,0,3.05061.81477,12.39824,12.39824,0,0,0,.11779-3.93382,15.11008,15.11008,0,0,1,1.43683,3.73207c3.01239-.65764,2.87876-1.55362,5.98258-1.0848a6.35024,6.35024,0,0,1,4.79706,7.95506c.65761-1.43971,3.38912-.78526,3.8499.86223.4804,1.73384-.57695,3.48625-1.58924,4.97429-3.61489,5.3191,5.73416,15.12357,2.11927,20.44266l-.5033.60136a54.06463,54.06463,0,0,0,8.9272-5.831,17.475,17.475,0,0,1-.243-6.40313,8.167,8.167,0,0,0,2.7342,4.48569c10.22791-8.02,22.53115-19.56584,20.2687-22.3678l-6.88463-12.1359c-7.23553-12.74827-24.68636-17.86945-35.49785-7.97048-.2826.26392-.92276.08895-1.20774.3668-3.10616.80484-7.08237,2.26308-9.11165,4.746C719.6092,333.859,720.72894,340.32559,723.3839,342.118Z" transform="translate(-231.96091 -219.1716)" fill="#2f2e41"/><path d="M736.63637,473.29731c-13.78164-7.3483-24.5973-17.7083-31.48393-32.05787a3.43412,3.43412,0,0,1,.04382-4.85087l24.21082-23.77736a3.4341,3.4341,0,0,1,4.85085.04383l31.48393,32.05788a3.4341,3.4341,0,0,1-.0438,4.85085l-24.21082,23.77736A3.43411,3.43411,0,0,1,736.63637,473.29731Z" transform="translate(-231.96091 -219.1716)" fill="#e6e6e6"/><path d="M728.984,461.79062c-7.52783-2.7874-14.01937-10.99227-20.24073-20.60971a3.21607,3.21607,0,0,1,.041-4.543l20.80715-20.43464a3.21623,3.21623,0,0,1,4.5431.04092L762.151,444.77136a3.21623,3.21623,0,0,1-.04115,4.5431l-12.88961,12.65883A14.32592,14.32592,0,0,1,728.984,461.79062Z" transform="translate(-231.96091 -219.1716)" fill="#fff"/><path d="M743.04894,434.49253,726.869,450.47116a1.3644,1.3644,0,1,1-1.91744-1.94159l16.17994-15.97863a1.3644,1.3644,0,1,1,1.91744,1.94159Z" transform="translate(-231.96091 -219.1716)" fill="#ffd32e"/><path d="M725.1709,441.63194l-3.55958,3.5153a1.3644,1.3644,0,0,1-1.91744-1.9416l3.55959-3.51529a1.3644,1.3644,0,1,1,1.91743,1.94159Z" transform="translate(-231.96091 -219.1716)" fill="#ffd32e"/><path d="M751.47849,443.02828l-16.17994,15.97863a1.3644,1.3644,0,1,1-1.91744-1.94159l16.17994-15.97863a1.3644,1.3644,0,1,1,1.91744,1.94159Z" transform="translate(-231.96091 -219.1716)" fill="#ffd32e"/><path d="M747.26371,438.76041,731.08377,454.739a1.3644,1.3644,0,1,1-1.91743-1.94159l16.17994-15.97863a1.3644,1.3644,0,0,1,1.91743,1.9416Z" transform="translate(-231.96091 -219.1716)" fill="#ffd32e"/><path d="M712.57775,506.49968a7.32611,7.32611,0,0,1,6.97392-8.70943l13.31206-34.00237,10.31031,1.36977-16.10621,40.26952a7.31584,7.31584,0,0,1-14.49008,1.07251Z" transform="translate(-231.96091 -219.1716)" fill="#ffb6b6"/><path d="M769.17985,385.8766s10.53837,14.18851,6.39276,22.30214-6.76828,16.03589-9.49374,18.59425-10.60517,27.33581-13.60212,28.64109.17495,4.41129-3.80356,7.24113-5.23159,3.10135-4.96011,4.35441-7.32285,18.52139-7.32285,18.52139l-12.3745-4.56791,26.35113-91.65836Z" transform="translate(-231.96091 -219.1716)" fill="#ffd32e"/><path d="M966.8484,680.8284l-662.75-.69267a1.19069,1.19069,0,0,1,0-2.38137l662.75.69267a1.19069,1.19069,0,1,1,0,2.38137Z" transform="translate(-231.96091 -219.1716)" fill="#cacaca"/><path d="M480.94405,418.55293c-7.848-13.50335-11.58871-28.00559-9.88858-43.83105a3.43411,3.43411,0,0,1,2.59122-4.101l33.10218-7.46807a3.4341,3.4341,0,0,1,4.101,2.59122l9.88857,43.831a3.4341,3.4341,0,0,1-2.59119,4.101l-33.10218,7.46806A3.4341,3.4341,0,0,1,480.94405,418.55293Z" transform="translate(-231.96091 -219.1716)" fill="#e6e6e6"/><path d="M480.49643,404.74127c-4.93243-6.33316-6.13156-16.72652-6.35728-28.17858a3.21607,3.21607,0,0,1,2.42676-3.84073l28.44853-6.41818a3.21622,3.21622,0,0,1,3.8409,2.42671l8.79948,39.00368a3.21621,3.21621,0,0,1-2.42691,3.84077l-17.62327,3.97593A14.32594,14.32594,0,0,1,480.49643,404.74127Z" transform="translate(-231.96091 -219.1716)" fill="#fff"/><path d="M491.56234,383.21166a4.09886,4.09886,0,0,1,4.79639-1.04586,4.21,4.21,0,0,1,2.14657,4.57693c-.31194,2.063-1.38954,3.9411-1.48742,6.05338a5.20218,5.20218,0,0,0,2.24153,4.78615c1.17465.71366,2.38368-1.053,1.20341-1.77011-1.94219-1.18-1.28953-3.773-.72616-5.5417.70345-2.20852,1.43649-4.46.56625-6.73562a6.14645,6.14645,0,0,0-10.1478-1.93645c-.92678.99935.46876,2.62523,1.40723,1.61328Z" transform="translate(-231.96091 -219.1716)" fill="#ffd32e"/><circle cx="269.02913" cy="182.4388" r="2.14044" fill="#ffd32e"/><path d="M291.7367,325.33073c-7.848-13.50334-11.58871-28.00558-9.88857-43.83105a3.43412,3.43412,0,0,1,2.59122-4.101l33.10217-7.46806a3.43409,3.43409,0,0,1,4.101,2.59122l9.88858,43.83105a3.43409,3.43409,0,0,1-2.5912,4.101L295.83774,327.922A3.43411,3.43411,0,0,1,291.7367,325.33073Z" transform="translate(-231.96091 -219.1716)" fill="#e6e6e6"/><path d="M291.28908,311.51908c-4.93243-6.33317-6.13156-16.72653-6.35727-28.17858a3.21608,3.21608,0,0,1,2.42675-3.84074l28.44853-6.41817a3.21622,3.21622,0,0,1,3.8409,2.42671l8.79949,39.00367a3.21622,3.21622,0,0,1-2.42691,3.84078l-17.62328,3.97593A14.32594,14.32594,0,0,1,291.28908,311.51908Z" transform="translate(-231.96091 -219.1716)" fill="#fff"/><circle cx="74.19733" cy="92.3204" r="3" fill="#ffd32e"/><path d="M309.74335,282.99935c-1.15467-1.35387-3.26742-1.1386-5.01536-.80558a20.65949,20.65949,0,0,0-5.27182,1.50091,6.95817,6.95817,0,0,0-3.68879,3.87742c-.69826,2.14121.0621,4.468.97414,6.52706a44.03918,44.03918,0,0,0,6.9168,10.92081l1.43013.66229a27.01094,27.01094,0,0,0,5.528-20.23923A4.66914,4.66914,0,0,0,309.74335,282.99935Z" transform="translate(-231.96091 -219.1716)" fill="#ffd32e"/></svg>