<svg xmlns="http://www.w3.org/2000/svg" viewBox="0 0 800 800" width="800" height="800">
<path fill="#32322e" d="M373.5 166.315C314.203 173.271 259.358 207.553 238.489 250.709 216.721 295.724 234.009 331.53 286.788 350.748 299.873 355.513 320.41 359.952 348 363.981 430.34 376.004 482.805 397.669 519.16 434.658 555.706 471.843 558.106 512.588 525.853 548.325 492.77 584.98 414.044 599.149 351.507 579.703 323.394 570.962 281.872 540.551 266.597 517.515 261.093 509.214 250.222 498.549 246.394 497.693 244.802 497.337 242.912 496.861 242.194 496.634 238.108 495.346 232.784 500.03 230.942 506.534 229.891 510.245 233.12 526.259 236.098 532.105 245.467 550.493 268.191 572.093 298.5 591.422 339.801 617.76 378.322 625.888 439.5 621.174 467.873 618.987 502.245 608.07 523 594.651 544.631 579.414 544.631 578.971 561.172 558.633 620.575 474.027 551.522 375.27 408.5 340.285 389.445 335.623 378.108 333.522 348 329.072 298.831 321.806 272.46 311.035 265.12 295.221 256.465 276.577 277.122 243.69 310.025 223.73 348.438 200.427 400.752 192.731 430 206.08 434.125 207.963 438.625 209.816 440 210.198 444.33 211.403 458.395 218.442 460.903 220.659 463.746 223.174 466.823 223.419 467.664 221.198 468.411 219.227 460.168 200.78 454.874 192.576 447.722 181.493 426.319 168.527 411.307 166.185 403.014 164.891 385.11 164.953 373.5 166.315" fill-rule="evenodd"/>
</svg>
