<svg xmlns="http://www.w3.org/2000/svg" viewBox="0 0 800 800" width="800" height="800">
<defs>
  <linearGradient id="shadowedPaper" x1="0%" y1="0%" x2="100%" y2="100%">
    <stop offset="30%" stop-color="#e5b800" />
    <stop offset="50%" stop-color="#b18b00" />
  </linearGradient>
</defs>

<path fill="url(#shadowedPaper)" d="M556.183 566.0759C558.14 566.0759 589.784 558.5327 604.671 554.5175 632.834 546.9225 651.443 541.0197 666.5 534.9053 705.257 519.1676 707.988 517.9413 721 510.4263 733.259 503.5484 734.002 503.1473 739.899 500.6967 510.888 721.3985 484.103 749.6658 487.537 745.2071 499.838 727.5008 512.842 700.1863 520.464 672.8101 522.93 663.9544 525.392 655.3418 525.936 653.6709 527.165 649.8967 536.14 612.9985 538.498 602.0253 539.456 597.5696 540.598 592.557 541.036 590.8861 541.473 589.2152 542.123 586.0962 542.479 583.9554L543.126 580.0628 545 567.0886Z" fill-rule="evenodd"/>
</svg>
