<svg xmlns="http://www.w3.org/2000/svg" viewBox="0 0 800 790" width="800" height="790">
<defs>
  <linearGradient id="yellowPaper" x1="0%" y1="0%" x2="0%" y2="100%">
    <stop offset="0%" stop-color="#faca22" />
    <stop offset="100%" stop-color="#ffd32e" />
  </linearGradient>
  <linearGradient id="shadowedPaper" x1="0%" y1="0%" x2="100%" y2="100%">
    <stop offset="30%" stop-color="#e5b800" />
    <stop offset="50%" stop-color="#b18b00" />
  </linearGradient>
</defs>
<style>
.shadow {
  filter: drop-shadow(0 0 20 rgba(125,100,22,122));
}
</style>

<rect x="0" y="0" width="100%" height="100%" fill="#fac60a" />

<g class="shadow">
<g transform="translate(400 395) scale(0.67 0.67) translate(-400 -395)">
<path fill="url(#yellowPaper)" d="M-999 -999L-999 789.739L170.25 789.739C354.224 789.397 352.151 789.453 389 783.823 440.239 775.994 450.043 771.107 487.949 734.5 643.85 584.8 673.909 556.249 691.506 540.053 758.64 478.265 770.252 464.446 779.781 435 790.784 400.998 798.168 336.097 799.235 264L801 0V-999L-999 -999" fill-rule="evenodd"/>
</g>
</g>

<g transform="translate(400 395) scale(0.67 0.67) translate(-400 -395)">

<path fill="url(#shadowedPaper)" d="M556.183 559C558.14 559 589.784 551.551 604.671 547.586 632.834 540.086 651.443 534.257 666.5 528.219 705.257 512.678 707.988 511.467 721 504.046 733.259 497.254 734.002 496.858 739.899 494.438 510.888 712.381 484.103 740.295 487.537 735.892 499.838 718.407 512.842 691.434 520.464 664.4 522.93 655.655 525.392 647.15 525.936 645.5 527.165 641.773 536.14 605.336 538.498 594.5 539.456 590.1 540.598 585.15 541.036 583.5 541.473 581.85 542.123 578.77 542.479 576.656L543.126 572.812 545 560Z" fill-rule="evenodd"/>

<path fill="#32322e" d="M373.5 164.236c-59.297 6.869-114.142 40.723-135.011 83.339-21.768 44.452-4.48 79.811 48.299 98.789 13.085 4.705 33.622 9.089 61.212 13.067 82.34 11.873 134.805 33.267 171.16 69.794 36.546 36.72 38.946 76.956 6.693 112.246-33.083 36.197-111.809 50.189-174.346 30.986-28.113-8.632-69.635-38.663-84.91-61.411-5.504-8.197-16.375-18.729-20.203-19.574-1.592-.352-3.482-.822-4.2-1.046-4.086-1.272-9.41 3.354-11.252 9.776-1.051 3.665 2.178 19.479 5.156 25.252 9.369 18.158 32.093 39.488 62.402 58.575 41.301 26.009 79.822 34.035 141 29.38 28.373-2.159 62.745-12.94 83.5-26.191 16.643-10.625 19.638-13.744 21.967-22.876 1.031-4.041 1.202-4.178 6.091-4.85 4.851-.667 5.211-.946 10.114-7.842 59.403-83.548-9.65-181.071-152.672-215.619-19.055-4.603-30.392-6.678-60.5-11.072-49.169-7.176-75.54-17.812-82.88-33.428-8.655-18.411 12.002-50.887 44.905-70.598 38.413-23.011 90.727-30.611 119.975-17.429 4.125 1.859 8.625 3.689 10 4.067 4.33 1.189 18.395 8.14 20.903 10.33 2.843 2.483 5.92 2.725 6.761.532.747-1.946-7.496-20.163-12.79-28.264-7.152-10.945-28.555-23.749-43.567-26.061-8.293-1.278-26.197-1.217-37.807.128" fill-rule="evenodd"/>

</g>
</svg>
