<svg xmlns="http://www.w3.org/2000/svg" viewBox="0 0 800 790" width="800" height="790">
<defs>
  <linearGradient id="yellowPaper" x1="0%" y1="0%" x2="0%" y2="100%">
    <stop offset="0%" stop-color="#faca22" />
    <stop offset="100%" stop-color="#ffd32e" />
  </linearGradient>
  <linearGradient id="shadowedPaper" x1="76%" y1="76%" x2="68%" y2="68%">
    <stop offset="0%" stop-color="#b18b00" />
    <stop offset="100%" stop-color="#e5b800" />
  </linearGradient>
</defs>
<style>
.shadow {
  filter: drop-shadow(0 0 20 rgba(125,100,22,122));
}
</style>

<rect x="0" y="0" width="100%" height="100%" fill="#fac60a" />

<g class="shadow">

<path fill="url(#yellowPaper)" d="M0 0V790.055L170.25 789.739C354.224 789.397 352.151 789.453 389 783.823 440.239 775.994 450.043 771.107 487.949 734.5 643.85 584.8 673.909 556.249 691.506 540.053 758.64 478.265 770.252 464.446 779.781 435 790.784 400.998 798.168 336.097 799.235 264L801 0H0" fill-rule="evenodd"/>

<path fill="url(#shadowedPaper)" d="M365.5 165.068C298.288 176.715 247.778 213.684 231.699 263c-3.394 10.41-3.124 28.992.567 39 11.133 30.182 50.481 50.072 113.734 57.492 27.962 3.281 66.853 12.207 91.303 20.957 50.279 17.993 88.601 47.442 104.173 80.051 23.699 49.629-20.642 107.051-89.976 116.521-3.3.45-9.375 1.335-13.5 1.965-19.768 3.021-56.452 1.028-76.5-4.157-31.79-8.22-77.481-38.347-92.247-60.824-4.879-7.425-17.995-20.937-21.971-22.633-18.723-7.985-22.896 17.954-6.783 42.17 7.757 11.658 20.018 23.855 35.706 35.518 36.492 27.13 61.439 38.269 98.795 44.111 11.566 1.808 60.448 1.807 72-.002 39.322-6.159 67.274-17.068 89.313-34.858l6.813-5.499-.647 3.844c-.356 2.114-1.006 5.194-1.443 6.844-.438 1.65-1.58 6.6-2.538 11-2.358 10.836-11.333 47.273-12.562 51-.544 1.65-3.006 10.155-5.472 18.9-7.622 27.034-20.626 54.007-33.302 69.076-4.722 5.615 23.726-21.095 61.323-57.575 7.708-7.479 21.219-20.304 30.023-28.5 8.804-8.195 28.829-27.549 44.5-43.008 15.671-15.458 37.492-36.35 48.492-46.425 23.742-21.747 67.5-62.949 67.5-63.557 0-.428-5.764 2.658-18 9.635-13.012 7.421-15.743 8.632-54.5 24.173-15.057 6.038-33.666 11.867-61.829 19.367C589.784 551.551 558.14 559 556.183 559c-.174 0 1.285-1.955 3.243-4.345 5.493-6.703 13.061-20.509 16.983-30.981 21.534-57.492-11.053-116.62-87.409-158.603-32.605-17.927-87.172-33.974-134.5-39.553-49.226-5.803-84.445-19.7-89.613-35.361-3.875-11.74 4.068-32.292 18.562-48.033 32.54-35.338 108.564-55.519 145.379-38.591 3.12 1.434 8.782 3.699 12.583 5.033 7.686 2.697 16.88 7.551 20.384 10.763 4.278 3.922 7.714-.746 4.927-6.694-.808-1.724-2.904-6.285-4.659-10.135-4.825-10.588-10.619-18.58-16.902-23.312-6.829-5.143-23.938-13.723-30.161-15.125-7.713-1.738-37.117-1.141-49.5 1.005" fill-rule="evenodd"/>

<path fill="#32322e" d="M373.5 164.236c-59.297 6.869-114.142 40.723-135.011 83.339-21.768 44.452-4.48 79.811 48.299 98.789 13.085 4.705 33.622 9.089 61.212 13.067 82.34 11.873 134.805 33.267 171.16 69.794 36.546 36.72 38.946 76.956 6.693 112.246-33.083 36.197-111.809 50.189-174.346 30.986-28.113-8.632-69.635-38.663-84.91-61.411-5.504-8.197-16.375-18.729-20.203-19.574-1.592-.352-3.482-.822-4.2-1.046-4.086-1.272-9.41 3.354-11.252 9.776-1.051 3.665 2.178 19.479 5.156 25.252 9.369 18.158 32.093 39.488 62.402 58.575 41.301 26.009 79.822 34.035 141 29.38 28.373-2.159 62.745-12.94 83.5-26.191 16.643-10.625 19.638-13.744 21.967-22.876 1.031-4.041 1.202-4.178 6.091-4.85 4.851-.667 5.211-.946 10.114-7.842 59.403-83.548-9.65-181.071-152.672-215.619-19.055-4.603-30.392-6.678-60.5-11.072-49.169-7.176-75.54-17.812-82.88-33.428-8.655-18.411 12.002-50.887 44.905-70.598 38.413-23.011 90.727-30.611 119.975-17.429 4.125 1.859 8.625 3.689 10 4.067 4.33 1.189 18.395 8.14 20.903 10.33 2.843 2.483 5.92 2.725 6.761.532.747-1.946-7.496-20.163-12.79-28.264-7.152-10.945-28.555-23.749-43.567-26.061-8.293-1.278-26.197-1.217-37.807.128" fill-rule="evenodd"/>

</g>
</svg>
