<svg xmlns="http://www.w3.org/2000/svg" viewBox="0 0 800 800" width="1024" height="1024">
<defs>
  <linearGradient id="shadowedPaper" x1="0%" y1="0%" x2="100%" y2="100%">
    <stop offset="10%" stop-color="#00000020" />
    <stop offset="50%" stop-color="#00000060" />
  </linearGradient>
</defs>

<g class="shadow">
<g transform="translate(400 400) scale(0.67 0.67) translate(-400 -400)">
<path fill="#00000040" d="M488 744c-38 37-48 42-99 50-37 5-35 5-1388 6V1999H1999V-999H800V170c-1 184-1 182-6 219-8 51-13 61-50 99Z"/>
</g>
</g>

<g transform="translate(400 400) scale(0.67 0.67) translate(-400 -400)">
<path fill="black" d="M410 165c-8-1-26-1-37 0-60 7-115 42-135 85-22 45-5 81 48 100 13 5 33 9 61 13 82 12 135 34 171 71 37 37 39 78 7 113-33 37-112 51-174 32-28-9-70-39-85-62-6-9-17-19-20-20-2-1-4-1-5-1-4-2-9 3-11 10-1 3 2 19 5 25 10 19 32 40 63 59 41 27 79 35 141 30 28-2 62-13 83-26 7.7-5.2 12.6-8.7 16.6-11.9q.2-1.6.4-3.1c0-5.2 1-10.4 3.1-15.3 2-4.8 4.9-9.3 8.6-13s8.2-6.6 13-8.6q3.5-1.5 7.1-2.2C609.9 459.4 540.9 371.6 408 339c-19-4-31-6-61-11-49-7-75-18-83-34-8-18 12-51 45-71 39-23 91-31 120-18 4 2 9 4 10 4 4 2 19 9 21 11 3 2 6 3 7 0 1-2-8-20-13-28-7-11-29-24-44-27Z" fill-rule="evenodd"/>
<path fill="url(#shadowedPaper)" d="M488 744C512 720 530 650 540 580A40 40 0 01580 540C650 530 720 512 744 488Z"/>
</g>
</svg>
