<svg xmlns="http://www.w3.org/2000/svg" viewBox="0 0 800 800" width="800" height="800">
<defs>
  <linearGradient id="yellowPaper" x1="0%" y1="0%" x2="0%" y2="100%">
    <stop offset="0%" stop-color="#faca22" />
    <stop offset="100%" stop-color="#ffd32e" />
  </linearGradient>
  <linearGradient id="shadowedPaper" x1="0%" y1="0%" x2="100%" y2="100%">
    <stop offset="30%" stop-color="#e5b800" />
    <stop offset="50%" stop-color="#b18b00" />
  </linearGradient>
</defs>

<path fill="url(#yellowPaper)" d="M0 0V800.0557L170.25 799.7357C354.224 799.3894 352.151 799.4461 389 793.7448 440.239 785.8167 450.043 780.8678 487.949 743.7975 643.85 592.2025 673.909 563.2901 691.506 546.8891 758.64 484.319 770.252 470.3251 779.781 440.5063 790.784 406.0739 798.168 340.3514 799.235 267.3418L801 0H0" fill-rule="evenodd"/>

<path fill="#32322e" d="M373.5 166.315C314.203 173.271 259.358 207.553 238.489 250.709 216.721 295.724 234.009 331.53 286.788 350.748 299.873 355.513 320.41 359.952 348 363.981 430.34 376.004 482.805 397.669 519.16 434.658 555.706 471.843 558.106 512.588 525.853 548.325 492.77 584.98 414.044 599.149 351.507 579.703 323.394 570.962 281.872 540.551 266.597 517.515 261.093 509.214 250.222 498.549 246.394 497.693 244.802 497.337 242.912 496.861 242.194 496.634 238.108 495.346 232.784 500.03 230.942 506.534 229.891 510.245 233.12 526.259 236.098 532.105 245.467 550.493 268.191 572.093 298.5 591.422 339.801 617.76 378.322 625.888 439.5 621.174 467.873 618.987 502.245 608.07 523 594.651 544.631 579.414 544.631 578.971 561.172 558.633 620.575 474.027 551.522 375.27 408.5 340.285 389.445 335.623 378.108 333.522 348 329.072 298.831 321.806 272.46 311.035 265.12 295.221 256.465 276.577 277.122 243.69 310.025 223.73 348.438 200.427 400.752 192.731 430 206.08 434.125 207.963 438.625 209.816 440 210.198 444.33 211.403 458.395 218.442 460.903 220.659 463.746 223.174 466.823 223.419 467.664 221.198 468.411 219.227 460.168 200.78 454.874 192.576 447.722 181.493 426.319 168.527 411.307 166.185 403.014 164.891 385.11 164.953 373.5 166.315" fill-rule="evenodd"/>

<path fill="url(#shadowedPaper)" d="M556.183 566.0759C558.14 566.0759 589.784 558.5327 604.671 554.5175 632.834 546.9225 651.443 541.0197 666.5 534.9053 705.257 519.1676 707.988 517.9413 721 510.4263 733.259 503.5484 734.002 503.1473 739.899 500.6967 510.888 721.3985 484.103 749.6658 487.537 745.2071 499.838 727.5008 512.842 700.1863 520.464 672.8101 522.93 663.9544 525.392 655.3418 525.936 653.6709 527.165 649.8967 536.14 612.9985 538.498 602.0253 539.456 597.5696 540.598 592.557 541.036 590.8861 541.473 589.2152 542.123 586.0962 542.479 583.9554L543.126 580.0628 545 567.0886Z" fill-rule="evenodd"/>
</svg>
