<svg xmlns="http://www.w3.org/2000/svg" viewBox="0 0 800 790" width="800" height="790">
<g transform="translate(400 395) scale(0.63 0.63) translate(-400 -395)">
<path fill="#32322e" d="m373.5 164.236c-59.297 6.869-114.142 40.723-135.011 83.339-21.768 44.452-4.48 79.811 48.299 98.789 13.085 4.705 33.622 9.089 61.212 13.067 82.34 11.873 134.805 33.267 171.16 69.794 36.546 36.72 38.946 76.956 6.693 112.246-33.083 36.197-111.809 50.189-174.346 30.986-28.113-8.632-69.635-38.663-84.91-61.411-5.504-8.197-16.375-18.729-20.203-19.574-1.592-.352-3.482-.822-4.2-1.046-4.086-1.272-9.41 3.354-11.252 9.776-1.051 3.665 2.178 19.479 5.156 25.252 9.369 18.158 32.093 39.488 62.402 58.575 41.301 26.009 79.822 34.035 141 29.38 28.373-2.159 62.745-12.94 83.5-26.191 26-20.218 1-.218 26-20.218 6.909-8.175 7.269-8.454 12.172-15.35 59.403-83.548-9.65-181.071-152.672-215.619-19.055-4.603-30.392-6.678-60.5-11.072-49.169-7.176-75.54-17.812-82.88-33.428-8.655-18.411 12.002-50.887 44.905-70.598 38.413-23.011 90.727-30.611 119.975-17.429 4.125 1.859 8.625 3.689 10 4.067 4.33 1.189 18.395 8.14 20.903 10.33 2.843 2.483 5.92 2.725 6.761.532.747-1.946-7.496-20.163-12.79-28.264-7.152-10.945-28.555-23.749-43.567-26.061-8.293-1.278-26.197-1.217-37.807.128" fill-rule="evenodd"/>
</g>
</svg>
